<?xml version="1.0" encoding="UTF-8" standalone="no"?>
<svg
   width="400"
   height="516"
   viewBox="0 0 400 516"
   version="1.1"
   id="svg1"
   xmlns="http://www.w3.org/2000/svg"><g
     id="layer1"><path
       style="fill:none;stroke:#e10000;stroke-width:2.24;stroke-dasharray:none;stroke-opacity:1"
       d="M 41.20,37.00 C 35.24,42.46 31.84,52.67 30.27,63.00 28.69,73.33 29.48,87.18 31.73,99.00 33.99,110.82 35.62,118.80 43.80,133.93 51.98,149.07 71.92,178.54 80.80,189.80 89.68,201.06 92.03,195.96 97.07,201.47 102.10,206.98 104.82,216.29 111.00,222.87 117.18,229.44 125.81,236.54 134.13,240.93 142.46,245.32 155.23,246.51 160.93,249.20 166.63,251.89 170.42,245.93 168.33,257.07 166.24,268.20 152.36,300.68 148.40,316.00 144.44,331.32 143.99,334.33 144.60,349.00 145.21,363.67 146.82,386.67 152.07,404.00 157.31,421.33 167.41,441.09 176.07,453.00 184.72,464.91 195.01,470.27 204.00,475.47 212.99,480.67 221.83,482.66 230.00,484.20 238.17,485.74 242.00,486.83 253.00,484.73 264.00,482.63 276.46,480.42 296.00,471.60 315.54,462.78 357.56,439.57 370.27,431.80 382.98,424.03 374.62,432.63 372.27,425.00 369.91,417.37 359.07,400.33 356.13,386.00 353.20,371.67 352.22,355.13 354.67,339.00 357.11,322.87 363.44,299.57 370.80,289.20 378.16,278.83 394.33,299.43 398.80,276.80 403.27,254.17 401.90,174.80 397.60,153.40 393.30,132.00 393.27,159.31 373.00,148.40 352.73,137.49 306.00,104.30 276.00,87.93 246.00,71.57 220.00,59.63 193.00,50.20 166.00,40.77 135.17,34.66 114.00,31.33 92.83,28.01 78.13,29.32 66.00,30.27 53.87,31.21 47.16,31.54 41.20,37.00 z"
       id="path1" /><path
       style="fill:none;stroke:#e10000;stroke-width:2.24;stroke-dasharray:none;stroke-opacity:1"
       d="M 40.87,46.00 C 40.52,49.18 49.16,50.66 49.93,56.60 50.71,62.54 41.57,73.79 45.53,81.67 49.50,89.54 67.89,97.64 73.73,103.87 79.58,110.09 80.66,112.48 80.60,119.00 80.54,125.52 74.03,134.17 73.40,143.00 72.77,151.83 70.02,159.36 76.80,172.00 83.58,184.64 103.53,207.86 114.07,218.87 124.60,229.88 133.18,235.26 140.00,238.07 146.82,240.88 149.20,239.04 155.00,235.73 160.80,232.42 167.97,221.37 174.80,218.20 181.63,215.03 190.40,218.93 196.00,216.73 201.60,214.53 202.09,207.11 208.40,205.00 214.71,202.89 229.12,206.91 233.87,204.07 238.61,201.22 230.21,191.11 236.87,187.93 243.52,184.76 267.09,186.61 273.80,185.00 280.51,183.39 277.73,181.27 277.13,178.27 276.53,175.27 264.62,168.37 270.20,167.00 275.78,165.63 302.17,166.40 310.60,170.07 319.03,173.73 317.07,184.52 320.80,189.00 324.53,193.48 322.13,198.39 333.00,196.93 343.87,195.48 375.11,184.79 386.00,180.27 396.89,175.74 396.67,173.68 398.33,169.80 400.00,165.92 400.39,159.70 396.00,157.00 391.61,154.30 389.17,162.47 372.00,153.60 354.83,144.73 312.67,113.32 293.00,103.80 273.33,94.28 265.36,96.33 254.00,96.47 242.64,96.60 226.54,107.73 224.87,104.60 223.19,101.47 249.08,85.82 243.93,77.67 238.79,69.51 207.49,60.77 194.00,55.67 180.51,50.57 176.00,48.61 163.00,47.07 150.00,45.52 128.33,48.41 116.00,46.40 103.67,44.39 99.67,36.48 89.00,35.00 78.33,33.52 60.02,35.70 52.00,37.53 43.98,39.37 41.21,42.82 40.87,46.00 z"
       id="path2" /><path
       style="fill:none;stroke:#e10000;stroke-width:2.24;stroke-dasharray:none;stroke-opacity:1"
       d="M 396.00,189.40 C 390.23,176.78 375.18,192.20 364.00,196.87 352.82,201.53 335.42,206.71 328.93,217.40 322.44,228.09 329.38,242.57 325.07,261.00 320.76,279.43 305.43,313.46 303.07,328.00 300.70,342.54 311.39,341.10 310.87,348.27 310.34,355.43 302.31,357.40 299.93,371.00 297.56,384.60 297.92,419.30 296.60,429.87 295.28,440.43 293.57,434.27 292.00,434.40 290.43,434.53 287.94,438.07 287.20,430.67 286.46,423.27 289.53,398.22 287.53,390.00 285.53,381.78 279.92,376.67 275.20,381.33 270.48,386.00 261.84,405.06 259.20,418.00 256.56,430.94 258.33,450.56 259.33,459.00 260.33,467.44 258.26,467.86 265.20,468.67 272.14,469.48 286.71,471.18 301.00,463.87 315.29,456.56 342.60,447.61 350.93,424.80 359.27,401.99 348.18,350.41 351.00,327.00 353.82,303.59 359.93,293.40 367.87,284.33 375.80,275.27 393.91,288.42 398.60,272.60 403.29,256.78 401.77,202.02 396.00,189.40 z"
       id="path3" /><path
       style="fill:none;stroke:#e10000;stroke-width:2.24;stroke-dasharray:none;stroke-opacity:1"
       d="M 237.00,350.73 C 232.84,349.59 233.69,348.59 227.00,356.13 220.31,363.68 201.58,385.58 196.87,396.00 192.16,406.42 201.48,413.29 198.73,418.67 195.99,424.04 184.38,425.04 180.40,428.27 176.42,431.49 172.10,431.71 174.87,438.00 177.63,444.29 187.14,459.07 197.00,466.00 206.86,472.93 226.58,478.16 234.00,479.60 241.42,481.04 240.80,477.34 241.53,474.67 242.27,471.99 237.80,467.16 238.40,463.53 239.00,459.91 244.32,458.19 245.13,452.93 245.94,447.68 241.96,442.16 243.27,432.00 244.58,421.84 251.56,403.50 253.00,392.00 254.44,380.50 254.60,369.88 251.93,363.00 249.27,356.12 241.16,351.88 237.00,350.73 z"
       id="path4" /><path
       style="fill:none;stroke:#e10000;stroke-width:2.24;stroke-dasharray:none;stroke-opacity:1"
       d="M 206.00,291.80 C 199.28,292.86 179.60,298.46 171.67,305.33 163.73,312.21 156.00,320.31 158.40,333.07 160.80,345.82 179.78,374.57 186.07,381.87 192.36,389.17 190.00,384.36 196.13,376.87 202.27,369.38 219.02,345.16 222.87,336.93 226.71,328.71 221.94,330.44 219.20,327.53 216.46,324.62 207.60,324.22 206.40,319.47 205.20,314.71 212.07,303.61 212.00,299.00 211.93,294.39 212.72,290.74 206.00,291.80 z"
       id="path5" /></g></svg>
