<?xml version="1.0" encoding="UTF-8" standalone="no"?>
<svg
   width="280"
   height="344"
   viewBox="0 0 280 344"
   version="1.1"
   id="svg1"
   xmlns="http://www.w3.org/2000/svg"><g
     id="layer1"><path
       style="fill:none;stroke:#e10000;stroke-width:1.50;stroke-dasharray:none;stroke-opacity:1"
       d="M 39.33,51.67 C 35.94,54.56 34.22,57.61 32.67,64.00 31.11,70.39 28.80,75.33 30.00,90.00 31.20,104.67 36.79,138.00 39.87,152.00 42.94,166.00 43.72,165.08 48.47,174.00 53.21,182.92 61.91,197.84 68.33,205.53 74.76,213.22 79.93,216.43 87.00,220.13 94.07,223.83 107.20,220.26 110.73,227.73 114.27,235.21 107.37,256.12 108.20,265.00 109.03,273.88 109.10,274.54 115.73,281.00 122.37,287.46 136.46,298.49 148.00,303.73 159.54,308.98 172.17,311.57 185.00,312.47 197.83,313.37 213.18,312.76 225.00,309.13 236.82,305.51 246.94,300.10 255.93,290.73 264.92,281.37 275.40,280.74 278.93,252.93 282.47,225.12 293.62,154.21 277.13,123.87 260.64,93.52 201.36,81.69 180.00,70.87 158.64,60.04 165.50,63.24 149.00,58.93 132.50,54.62 97.00,47.04 81.00,45.00 65.00,42.96 59.94,45.56 53.00,46.67 46.06,47.78 42.72,48.78 39.33,51.67 z"
       id="path1" /><path
       style="fill:none;stroke:#e10000;stroke-width:1.50;stroke-dasharray:none;stroke-opacity:1"
       d="M 132.40,197.40 C 135.70,199.22 159.66,194.31 166.80,196.40 173.94,198.49 172.73,207.21 175.27,209.93 177.80,212.66 176.38,213.36 182.00,212.73 187.62,212.11 202.41,208.59 209.00,206.20 215.59,203.81 218.83,201.08 221.53,198.40 224.23,195.72 225.56,192.07 225.20,190.13 224.84,188.20 222.13,185.58 219.40,186.80 216.67,188.02 214.03,194.18 208.80,197.47 203.57,200.76 193.24,206.01 188.00,206.53 182.76,207.06 179.27,203.89 177.33,200.60 175.40,197.31 177.46,189.81 176.40,186.80 175.34,183.79 175.90,182.76 171.00,182.53 166.10,182.31 153.43,182.99 147.00,185.47 140.57,187.94 129.10,195.58 132.40,197.40 z"
       id="path2" /><path
       style="fill:none;stroke:#e10000;stroke-width:1.50;stroke-dasharray:none;stroke-opacity:1"
       d="M 247.33,125.87 C 245.38,127.90 250.09,144.99 251.73,149.93 253.38,154.88 253.99,153.99 257.20,155.53 260.41,157.08 268.36,156.42 271.00,159.20 273.64,161.98 272.04,169.68 273.07,172.20 274.09,174.72 276.26,180.40 277.13,174.33 278.01,168.27 280.61,141.90 278.33,135.80 276.06,129.70 268.63,139.39 263.47,137.73 258.30,136.08 249.29,123.83 247.33,125.87 z"
       id="path3" /><path
       style="fill:none;stroke:#e10000;stroke-width:1.50;stroke-dasharray:none;stroke-opacity:1"
       d="M 144.80,83.53 C 143.56,79.41 140.11,85.42 138.07,89.00 136.02,92.58 133.41,100.71 132.53,105.00 131.66,109.29 131.88,112.48 132.80,114.73 133.72,116.99 135.94,118.70 138.07,118.53 140.19,118.37 144.41,119.57 145.53,113.73 146.66,107.90 146.04,87.66 144.80,83.53 z"
       id="path4" /><path
       style="fill:none;stroke:#e10000;stroke-width:1.50;stroke-dasharray:none;stroke-opacity:1"
       d="M 243.13,150.47 C 241.99,148.83 239.36,146.68 237.60,148.13 235.84,149.59 236.07,156.16 232.60,159.20 229.13,162.24 215.60,165.49 216.80,166.40 218.00,167.31 235.19,166.08 239.80,164.67 244.41,163.26 243.91,160.30 244.47,157.93 245.02,155.57 244.28,152.10 243.13,150.47 z"
       id="path5" /><path
       style="fill:none;stroke:#e10000;stroke-width:1.50;stroke-dasharray:none;stroke-opacity:1"
       d="M 278.60,191.67 C 276.88,189.92 267.37,190.03 264.27,190.93 261.17,191.83 258.28,195.32 260.00,197.07 261.72,198.81 271.50,202.30 274.60,201.40 277.70,200.50 280.32,193.41 278.60,191.67 z"
       id="path6" /><path
       style="fill:none;stroke:#e10000;stroke-width:1.50;stroke-dasharray:none;stroke-opacity:1"
       d="M 163.07,231.40 C 163.10,233.10 167.52,240.84 171.00,243.67 174.48,246.49 183.97,250.03 183.93,248.33 183.90,246.63 174.28,236.29 170.80,233.47 167.32,230.64 163.03,229.70 163.07,231.40 z"
       id="path7" /><path
       style="fill:none;stroke:#e10000;stroke-width:1.50;stroke-dasharray:none;stroke-opacity:1"
       d="M 194.13,112.47 C 192.88,111.30 187.57,110.96 185.67,112.27 183.77,113.58 181.48,119.17 182.73,120.33 183.99,121.50 191.30,120.58 193.20,119.27 195.10,117.96 195.39,113.63 194.13,112.47 z"
       id="path8" /><path
       style="fill:none;stroke:#e10000;stroke-width:1.50;stroke-dasharray:none;stroke-opacity:1"
       d="M 209.73,103.53 C 207.63,103.29 211.91,110.51 214.87,112.20 217.82,113.89 228.32,115.11 227.47,113.67 226.61,112.22 211.83,103.78 209.73,103.53 z"
       id="path9" /></g></svg>
