<?xml version="1.0" encoding="UTF-8" standalone="no"?>
<svg
   width="278"
   height="346"
   viewBox="0 0 278 346"
   version="1.1"
   id="svg1"
   xmlns="http://www.w3.org/2000/svg"><g
     id="layer1"><path
       style="fill:none;stroke:#e10000;stroke-width:1.50;stroke-dasharray:none;stroke-opacity:1"
       d="M 40.27,51.67 C 36.97,53.88 35.91,55.11 34.20,60.00 32.49,64.89 29.19,65.83 30.00,81.00 30.81,96.17 36.01,135.33 39.07,151.00 42.12,166.67 43.63,165.83 48.33,175.00 53.03,184.17 61.16,198.40 67.27,206.00 73.38,213.60 78.00,216.69 85.00,220.60 92.00,224.51 105.36,221.57 109.27,229.47 113.18,237.37 107.27,259.08 108.47,268.00 109.67,276.92 109.21,276.46 116.47,283.00 123.72,289.54 139.74,301.99 152.00,307.27 164.26,312.54 177.17,314.14 190.00,314.67 202.83,315.19 217.67,314.12 229.00,310.40 240.33,306.68 251.30,297.57 258.00,292.33 264.70,287.10 266.04,284.39 269.20,279.00 272.36,273.61 276.03,286.14 276.93,260.00 277.83,233.86 284.92,150.79 274.60,122.13 264.28,93.48 238.60,99.41 215.00,88.07 191.40,76.72 155.17,61.24 133.00,54.07 110.83,46.89 95.17,46.22 82.00,45.00 68.83,43.78 60.96,45.62 54.00,46.73 47.04,47.84 43.57,49.46 40.27,51.67 z"
       id="path1" /><path
       style="fill:none;stroke:#e10000;stroke-width:1.50;stroke-dasharray:none;stroke-opacity:1"
       d="M 40.93,55.13 C 37.80,59.94 33.87,69.72 33.20,79.00 32.53,88.28 35.31,106.29 36.93,110.80 38.56,115.31 42.26,111.40 42.93,106.07 43.61,100.73 38.96,85.01 41.00,78.80 43.04,72.59 52.16,69.81 55.20,68.80 58.24,67.79 60.92,64.37 59.27,72.73 57.61,81.10 45.62,103.71 45.27,119.00 44.91,134.29 53.71,156.54 57.13,164.47 60.56,172.39 63.16,168.00 65.80,166.53 68.44,165.07 68.79,150.77 73.00,155.67 77.21,160.57 82.94,185.50 91.07,195.93 99.19,206.37 108.63,214.09 121.73,218.27 134.83,222.44 162.78,218.21 169.67,221.00 176.56,223.79 162.18,230.51 163.07,235.00 163.96,239.49 171.32,245.80 175.00,247.93 178.68,250.07 184.26,250.09 185.13,247.80 186.01,245.51 180.50,236.82 180.27,234.20 180.03,231.58 172.31,225.76 183.73,232.07 195.16,238.38 236.89,265.83 248.80,272.07 260.71,278.30 253.14,271.81 255.20,269.47 257.26,267.12 260.40,261.33 261.13,258.00 261.87,254.67 261.91,249.93 259.60,249.47 257.29,249.00 253.53,255.94 247.27,255.20 241.00,254.46 228.02,248.20 222.00,245.00 215.98,241.80 213.89,239.86 211.13,236.00 208.38,232.14 208.70,226.00 205.47,221.87 202.23,217.73 197.14,212.87 191.73,211.20 186.32,209.53 178.46,213.01 173.00,211.87 167.54,210.72 167.17,205.16 159.00,204.33 150.83,203.51 130.71,206.96 124.00,206.93 117.29,206.91 111.97,206.29 118.73,204.20 125.50,202.11 156.34,197.59 164.60,194.40 172.86,191.21 166.54,187.03 168.27,185.07 169.99,183.10 173.54,184.92 174.93,182.60 176.32,180.28 173.06,174.14 176.60,171.13 180.14,168.12 192.26,168.56 196.20,164.53 200.14,160.51 200.80,151.30 200.27,147.00 199.73,142.70 195.26,139.96 193.00,138.73 190.74,137.51 188.89,137.99 186.73,139.67 184.58,141.34 184.52,145.98 180.07,148.80 175.61,151.62 164.89,155.72 160.00,156.60 155.11,157.48 150.52,156.44 150.73,154.07 150.94,151.69 157.59,145.02 161.27,142.33 164.94,139.64 171.22,140.86 172.80,137.93 174.38,135.01 167.04,129.31 170.73,124.80 174.42,120.29 191.92,115.04 194.93,110.87 197.94,106.69 187.46,101.36 188.80,99.73 190.14,98.11 194.74,97.86 203.00,101.13 211.26,104.41 231.60,116.56 238.33,119.40 245.07,122.24 242.87,119.19 243.40,118.20 243.93,117.21 250.77,120.12 241.53,113.47 232.30,106.81 203.34,86.53 188.00,78.27 172.66,70.00 155.91,64.62 149.47,63.87 143.02,63.11 150.98,70.03 149.33,73.73 147.69,77.43 142.18,79.02 139.60,86.07 137.02,93.11 135.76,109.26 133.87,116.00 131.98,122.74 128.93,122.77 128.27,126.53 127.60,130.30 131.34,139.02 129.87,138.60 128.39,138.18 121.28,129.43 119.40,124.00 117.52,118.57 117.79,112.00 118.60,106.00 119.41,100.00 121.20,94.17 124.27,88.00 127.33,81.83 135.16,73.88 137.00,69.00 138.84,64.12 139.33,61.61 135.33,58.73 131.33,55.86 123.38,53.44 113.00,51.73 102.62,50.02 80.23,47.93 73.07,48.47 65.90,49.00 68.88,52.30 70.00,54.93 71.12,57.57 79.97,60.61 79.80,64.27 79.63,67.92 70.92,76.91 69.00,76.87 67.08,76.82 69.81,68.22 68.27,64.00 66.72,59.78 62.44,53.84 59.73,51.53 57.02,49.22 55.13,49.53 52.00,50.13 48.87,50.73 44.07,50.32 40.93,55.13 z"
       id="path2" /><path
       style="fill:none;stroke:#e10000;stroke-width:1.50;stroke-dasharray:none;stroke-opacity:1"
       d="M 269.00,122.00 C 262.06,121.48 242.56,124.64 235.27,126.93 227.98,129.22 228.81,135.41 225.27,135.73 221.72,136.06 217.10,129.57 214.00,128.87 210.90,128.17 208.17,126.14 206.67,131.53 205.17,136.92 199.16,157.37 205.00,161.20 210.84,165.03 234.14,153.78 241.73,154.53 249.32,155.29 249.66,162.96 250.53,165.73 251.41,168.51 253.42,167.06 247.00,171.20 240.58,175.34 220.09,185.09 212.00,190.60 203.91,196.11 197.31,197.04 198.47,204.27 199.62,211.49 213.18,227.82 218.93,233.93 224.69,240.04 228.07,239.89 233.00,240.93 237.93,241.98 246.11,242.51 248.53,240.20 250.96,237.89 245.80,230.48 247.53,227.07 249.27,223.66 256.19,224.80 258.93,219.73 261.68,214.67 261.26,202.46 264.00,196.67 266.74,190.88 273.24,196.10 275.40,185.00 277.56,173.90 278.00,140.57 276.93,130.07 275.87,119.57 275.94,122.52 269.00,122.00 z"
       id="path3" /><path
       style="fill:none;stroke:#e10000;stroke-width:1.50;stroke-dasharray:none;stroke-opacity:1"
       d="M 120.40,246.47 C 118.68,248.69 116.50,256.49 116.33,261.00 116.17,265.51 112.66,268.09 119.40,273.53 126.14,278.98 152.32,294.06 156.80,293.67 161.28,293.28 151.29,278.87 146.27,271.20 141.24,263.53 130.98,251.79 126.67,247.67 122.36,243.54 122.12,244.24 120.40,246.47 z"
       id="path4" /><path
       style="fill:none;stroke:#e10000;stroke-width:1.50;stroke-dasharray:none;stroke-opacity:1"
       d="M 135.07,229.40 C 133.07,230.41 132.06,232.78 133.20,237.00 134.34,241.22 134.78,246.60 141.93,254.73 149.09,262.87 168.31,280.30 176.13,285.80 183.96,291.30 186.96,288.64 188.87,287.73 190.78,286.82 194.54,286.92 187.60,280.33 180.66,273.74 154.27,256.43 147.20,248.20 140.13,239.97 147.22,234.07 145.20,230.93 143.18,227.80 137.07,228.39 135.07,229.40 z"
       id="path5" /><path
       style="fill:none;stroke:#e10000;stroke-width:1.50;stroke-dasharray:none;stroke-opacity:1"
       d="M 237.93,164.13 C 237.44,162.90 237.72,160.52 232.00,162.40 226.28,164.28 208.72,172.11 203.60,175.40 198.48,178.69 200.20,180.89 201.27,182.13 202.33,183.38 204.39,184.92 210.00,182.87 215.61,180.81 230.28,172.92 234.93,169.80 239.59,166.68 238.42,165.37 237.93,164.13 z"
       id="path6" /><path
       style="fill:none;stroke:#e10000;stroke-width:1.50;stroke-dasharray:none;stroke-opacity:1"
       d="M 165.87,297.73 C 160.97,298.00 165.91,302.13 167.60,304.20 169.29,306.27 171.43,308.90 176.00,310.13 180.57,311.37 190.60,312.06 195.00,311.60 199.40,311.14 202.07,308.90 202.40,307.40 202.73,305.90 203.09,304.21 197.00,302.60 190.91,300.99 170.77,297.47 165.87,297.73 z"
       id="path7" /><path
       style="fill:none;stroke:#e10000;stroke-width:1.50;stroke-dasharray:none;stroke-opacity:1"
       d="M 199.00,289.87 C 198.67,291.47 201.00,293.68 204.00,294.53 207.00,295.39 212.47,295.88 217.00,295.00 221.53,294.12 233.03,290.94 231.20,289.27 229.37,287.59 211.37,284.83 206.00,284.93 200.63,285.03 199.33,288.27 199.00,289.87 z"
       id="path8" /></g></svg>
