<?xml version="1.0" encoding="UTF-8" standalone="no"?>
<svg
   width="309"
   height="270"
   viewBox="0 0 309 270"
   version="1.1"
   id="svg1"
   xmlns="http://www.w3.org/2000/svg"><g
     id="layer1"><path
       style="fill:none;stroke:#e10000;stroke-width:1.34;stroke-dasharray:none;stroke-opacity:1"
       d="M 41.60,41.07 C 36.44,46.04 30.98,56.42 31.07,61.93 31.16,67.44 38.23,73.46 42.13,74.13 46.03,74.81 49.49,68.00 54.47,66.00 59.44,64.00 66.24,62.42 72.00,62.13 77.76,61.84 83.67,64.47 89.00,64.27 94.33,64.07 96.83,60.09 104.00,60.93 111.17,61.78 124.33,67.89 132.00,69.33 139.67,70.78 145.42,68.14 150.00,69.60 154.58,71.06 158.29,74.96 159.47,78.07 160.64,81.18 159.93,86.14 157.07,88.27 154.20,90.39 143.64,88.62 142.27,90.80 140.89,92.98 148.52,98.84 148.80,101.33 149.08,103.82 148.44,105.77 143.93,105.73 139.42,105.70 125.62,102.90 121.73,101.13 117.84,99.37 119.10,97.52 120.60,95.13 122.10,92.74 132.00,89.26 130.73,86.80 129.47,84.34 117.37,81.31 113.00,80.40 108.63,79.49 106.24,79.20 104.53,81.33 102.82,83.47 103.99,90.71 102.73,93.20 101.48,95.69 99.91,95.93 97.00,96.27 94.09,96.60 91.43,97.76 85.27,95.20 79.10,92.64 66.61,81.99 60.00,80.93 53.39,79.88 47.92,86.79 45.60,88.87 43.28,90.94 44.28,91.62 46.07,93.40 47.86,95.18 52.47,91.93 56.33,99.53 60.20,107.13 63.92,126.92 69.27,139.00 74.61,151.08 84.76,164.53 88.40,172.00 92.04,179.47 91.44,179.66 91.13,183.80 90.82,187.94 86.54,193.53 86.53,196.87 86.52,200.20 84.32,198.20 91.07,203.80 97.81,209.40 118.68,225.30 127.00,230.47 135.32,235.63 130.68,233.60 141.00,234.80 151.32,236.00 178.43,238.46 188.93,237.67 199.43,236.88 197.34,232.21 204.00,230.07 210.66,227.92 223.23,226.72 228.87,224.80 234.50,222.88 233.74,224.11 237.80,218.53 241.86,212.96 254.16,200.86 253.20,191.33 252.24,181.81 235.59,167.19 232.07,161.40 228.54,155.61 230.79,157.67 232.07,156.60 233.34,155.53 236.41,153.30 239.73,155.00 243.06,156.70 247.32,164.92 252.00,166.80 256.68,168.68 263.57,169.91 267.80,166.27 272.03,162.62 278.22,151.32 277.40,144.93 276.58,138.54 267.90,131.81 262.87,127.93 257.83,124.06 248.90,125.99 247.20,121.67 245.50,117.34 252.14,106.76 252.67,102.00 253.19,97.24 253.03,95.40 250.33,93.13 247.63,90.87 240.69,91.19 236.47,88.40 232.24,85.61 229.24,79.63 225.00,76.40 220.76,73.17 217.33,70.44 211.00,69.00 204.67,67.56 193.86,67.27 187.00,67.73 180.14,68.20 175.87,74.48 169.87,71.80 163.87,69.12 160.64,58.31 151.00,51.67 141.36,45.02 126.83,35.20 112.00,31.93 97.17,28.67 73.73,30.54 62.00,32.07 50.27,33.59 46.76,36.09 41.60,41.07 z"
       id="path1" /><path
       style="fill:none;stroke:#e10000;stroke-width:1.34;stroke-dasharray:none;stroke-opacity:1"
       d="M 203.80,112.87 C 201.66,115.00 199.87,113.68 205.67,119.20 211.47,124.72 231.21,143.16 238.60,146.00 245.99,148.84 245.07,137.20 250.00,136.27 254.93,135.33 267.39,141.43 268.20,140.40 269.01,139.37 260.73,131.34 254.87,130.07 249.00,128.79 237.23,133.58 233.00,132.73 228.77,131.89 228.94,127.84 229.47,125.00 229.99,122.16 236.90,117.59 236.13,115.67 235.37,113.74 227.80,115.01 224.87,113.47 221.93,111.92 222.04,106.50 218.53,106.40 215.02,106.30 205.94,110.73 203.80,112.87 z"
       id="path2" /><path
       style="fill:none;stroke:#e10000;stroke-width:1.34;stroke-dasharray:none;stroke-opacity:1"
       d="M 126.07,113.07 C 122.53,113.44 120.46,116.91 119.93,120.20 119.41,123.49 122.91,129.44 122.93,132.80 122.96,136.16 118.07,138.24 120.07,140.33 122.07,142.42 131.28,145.89 134.93,145.33 138.59,144.78 140.97,141.57 142.00,137.00 143.03,132.43 143.79,121.92 141.13,117.93 138.48,113.94 129.60,112.69 126.07,113.07 z"
       id="path3" /><path
       style="fill:none;stroke:#e10000;stroke-width:1.34;stroke-dasharray:none;stroke-opacity:1"
       d="M 187.40,119.47 C 185.86,120.69 185.53,123.40 187.00,124.80 188.47,126.20 193.47,125.49 196.20,127.87 198.93,130.24 200.73,137.59 203.40,139.07 206.07,140.54 210.67,138.27 212.20,136.73 213.73,135.20 215.26,133.08 212.60,129.87 209.94,126.66 200.47,119.20 196.27,117.47 192.07,115.73 188.94,118.24 187.40,119.47 z"
       id="path4" /><path
       style="fill:none;stroke:#e10000;stroke-width:1.34;stroke-dasharray:none;stroke-opacity:1"
       d="M 213.93,177.47 C 213.02,174.36 204.98,177.09 202.80,178.80 200.62,180.51 202.59,184.77 200.87,187.73 199.14,190.70 193.67,194.06 192.47,196.60 191.27,199.14 191.03,202.86 193.67,203.00 196.30,203.14 204.89,201.72 208.27,197.47 211.64,193.21 214.84,180.58 213.93,177.47 z"
       id="path5" /><path
       style="fill:none;stroke:#e10000;stroke-width:1.34;stroke-dasharray:none;stroke-opacity:1"
       d="M 239.07,181.87 C 237.94,179.90 232.74,178.04 229.80,180.20 226.86,182.36 220.28,192.83 221.40,194.80 222.52,196.77 233.59,194.16 236.53,192.00 239.48,189.84 240.19,183.83 239.07,181.87 z"
       id="path6" /><path
       style="fill:none;stroke:#e10000;stroke-width:1.34;stroke-dasharray:none;stroke-opacity:1"
       d="M 166.87,84.60 C 165.73,86.03 165.58,87.71 170.20,88.07 174.82,88.42 193.47,88.17 194.60,86.73 195.73,85.30 181.62,79.82 177.00,79.47 172.38,79.11 168.00,83.17 166.87,84.60 z"
       id="path7" /><path
       style="fill:none;stroke:#e10000;stroke-width:1.34;stroke-dasharray:none;stroke-opacity:1"
       d="M 159.13,104.20 C 156.79,104.20 157.12,119.14 159.53,122.13 161.94,125.12 173.67,125.12 173.60,122.13 173.53,119.14 161.48,104.20 159.13,104.20 z"
       id="path8" /><path
       style="fill:none;stroke:#e10000;stroke-width:1.34;stroke-dasharray:none;stroke-opacity:1"
       d="M 195.33,97.53 C 192.57,97.60 175.80,108.07 172.93,110.73 170.07,113.40 175.37,113.60 178.13,113.53 180.90,113.47 186.67,113.00 189.53,110.33 192.40,107.67 198.10,97.47 195.33,97.53 z"
       id="path9" /><path
       style="fill:none;stroke:#e10000;stroke-width:1.34;stroke-dasharray:none;stroke-opacity:1"
       d="M 108.60,104.93 C 107.22,105.47 103.29,112.64 103.27,117.00 103.24,121.36 107.09,131.60 108.47,131.07 109.84,130.53 111.51,118.16 111.53,113.80 111.56,109.44 109.98,104.40 108.60,104.93 z"
       id="path10" /><path
       style="fill:none;stroke:#e10000;stroke-width:1.34;stroke-dasharray:none;stroke-opacity:1"
       d="M 206.53,87.60 C 206.66,89.01 212.10,94.28 216.00,96.47 219.90,98.66 230.06,102.14 229.93,100.73 229.81,99.32 219.17,90.19 215.27,88.00 211.37,85.81 206.41,86.19 206.53,87.60 z"
       id="path11" /><path
       style="fill:none;stroke:#e10000;stroke-width:1.34;stroke-dasharray:none;stroke-opacity:1"
       d="M 73.53,128.53 C 72.30,129.74 72.43,135.61 74.00,137.20 75.57,138.79 81.70,139.28 82.93,138.07 84.17,136.86 82.97,131.52 81.40,129.93 79.83,128.34 74.77,127.32 73.53,128.53 z"
       id="path12" /><path
       style="fill:none;stroke:#e10000;stroke-width:1.34;stroke-dasharray:none;stroke-opacity:1"
       d="M 192.27,142.60 C 192.40,144.12 192.96,148.72 196.27,150.33 199.58,151.94 212.27,153.79 212.13,152.27 212.00,150.74 198.78,142.81 195.47,141.20 192.16,139.59 192.13,141.08 192.27,142.60 z"
       id="path13" /><path
       style="fill:none;stroke:#e10000;stroke-width:1.34;stroke-dasharray:none;stroke-opacity:1"
       d="M 143.60,54.60 C 142.72,53.29 139.23,53.50 137.27,54.93 135.30,56.37 130.92,61.89 131.80,63.20 132.68,64.51 140.57,64.23 142.53,62.80 144.50,61.37 144.48,55.91 143.60,54.60 z"
       id="path14" /><path
       style="fill:none;stroke:#e10000;stroke-width:1.34;stroke-dasharray:none;stroke-opacity:1"
       d="M 177.07,171.07 C 176.12,172.30 173.70,177.17 175.07,179.47 176.43,181.77 184.32,186.10 185.27,184.87 186.21,183.63 182.10,174.37 180.73,172.07 179.37,169.77 178.01,169.83 177.07,171.07 z"
       id="path15" /><path
       style="fill:none;stroke:#e10000;stroke-width:1.34;stroke-dasharray:none;stroke-opacity:1"
       d="M 90.47,103.53 C 89.39,103.69 88.42,113.03 88.67,115.93 88.91,118.83 90.86,121.09 91.93,120.93 93.01,120.78 95.38,117.90 95.13,115.00 94.89,112.10 91.54,103.38 90.47,103.53 z"
       id="path16" /><path
       style="fill:none;stroke:#e10000;stroke-width:1.34;stroke-dasharray:none;stroke-opacity:1"
       d="M 123.47,150.67 C 122.21,150.50 121.10,153.67 121.33,156.07 121.57,158.47 123.61,164.90 124.87,165.07 126.12,165.23 129.10,159.47 128.87,157.07 128.63,154.67 124.72,150.83 123.47,150.67 z"
       id="path17" /><path
       style="fill:none;stroke:#e10000;stroke-width:1.34;stroke-dasharray:none;stroke-opacity:1"
       d="M 79.47,103.40 C 78.47,102.90 78.71,107.87 76.93,109.27 75.16,110.67 70.00,110.76 68.80,111.80 67.60,112.84 67.38,115.46 69.73,115.53 72.09,115.61 81.31,114.29 82.93,112.27 84.56,110.24 80.47,103.90 79.47,103.40 z"
       id="path18" /><path
       style="fill:none;stroke:#e10000;stroke-width:1.34;stroke-dasharray:none;stroke-opacity:1"
       d="M 75.80,44.80 C 74.91,43.71 70.28,43.41 68.80,44.47 67.32,45.52 66.04,50.04 66.93,51.13 67.82,52.22 72.66,52.06 74.13,51.00 75.61,49.94 76.69,45.89 75.80,44.80 z"
       id="path19" /><path
       style="fill:none;stroke:#e10000;stroke-width:1.34;stroke-dasharray:none;stroke-opacity:1"
       d="M 189.53,172.20 C 188.60,172.68 188.73,177.13 189.53,178.93 190.33,180.73 193.40,183.48 194.33,183.00 195.27,182.52 195.93,177.87 195.13,176.07 194.33,174.27 190.47,171.72 189.53,172.20 z"
       id="path20" /><path
       style="fill:none;stroke:#e10000;stroke-width:1.34;stroke-dasharray:none;stroke-opacity:1"
       d="M 190.80,75.73 C 191.13,76.66 198.47,78.84 201.00,79.00 203.53,79.16 206.33,77.59 206.00,76.67 205.67,75.74 201.53,73.62 199.00,73.47 196.47,73.31 190.47,74.81 190.80,75.73 z"
       id="path21" /><path
       style="fill:none;stroke:#e10000;stroke-width:1.34;stroke-dasharray:none;stroke-opacity:1"
       d="M 221.93,156.67 C 221.07,155.93 221.96,163.60 223.00,165.87 224.04,168.13 228.38,171.80 228.20,170.27 228.02,168.73 222.80,157.40 221.93,156.67 z"
       id="path22" /><path
       style="fill:none;stroke:#e10000;stroke-width:1.34;stroke-dasharray:none;stroke-opacity:1"
       d="M 43.07,52.53 C 42.42,53.47 41.37,64.30 41.80,65.53 42.23,66.77 45.46,62.10 45.67,59.93 45.88,57.77 43.71,51.60 43.07,52.53 z"
       id="path23" /></g></svg>
